<mxfile host="app.diagrams.net" modified="2023-05-28T00:07:37.878Z" agent="Mozilla/5.0 (Macintosh; Intel Mac OS X 10_15_7) AppleWebKit/537.36 (KHTML, like Gecko) Chrome/113.0.0.0 Safari/537.36" version="21.3.2" etag="L7E85gqvnWy1xVLij8_L" type="github">
  <diagram name="ページ1" id="ZhUhhZ0b7djOse1IJpB_">
    <mxGraphModel>
      <root>
        <mxCell id="0" />
        <mxCell id="1" parent="0" />
      </root>
    </mxGraphModel>
  </diagram>
</mxfile>
